ffmpeg started on 2026-04-01 at 12:55:48
Report written to "D:\Convert\FFMetrics\reports\psnr_report-6.txt"
Log level: 32
Command line:
ffmpeg -hide_banner -nostdin -r 24000/1001 -i "F:\\Convert\\files\\[DC] Make Heroine ga Oosugiru - 07_Telegram_HEVC(295).mkv" -r 24000/1001 -i "F:\\Convert\\files\\[DC] Make Heroine ga Oosugiru - 07_Telegram.mp4" -lavfi "[0:v]settb=AVTB,setpts=PTS-STARTPTS,format=pix_fmts=yuv420p10le,fps=24000/1001,scale=1920:1080:flags=lanczos:param0=3:out_range=limited:out_color_matrix=bt709:out_chroma_loc=left,setsar=1/1,setdar=(1920/1080)*(1/1),colorspace=format=yuv420p10:range=tv:primaries=bt709:trc=bt709:space=bt709:fast=0[main];[1:v]settb=AVTB,setpts=PTS-STARTPTS,format=pix_fmts=yuv420p,fps=24000/1001,scale=1920:1080:flags=lanczos:param0=3:out_range=limited:out_color_matrix=bt709:out_chroma_loc=left,setsar=1/1,setdar=(1920/1080)*(1/1),colorspace=format=yuv420p:range=tv:primaries=bt709:trc=bt709:space=bt709:fast=0[ref];[main][ref]psnr=eof_action=endall:stats_file='D\\:/Convert/FFMetrics/logs/psnr_logfile-6.txt'" -f null -
Input #0, matroska,webm, from 'F:\Convert\files\[DC] Make Heroine ga Oosugiru - 07_Telegram_HEVC(295).mkv':
  Metadata:
    COMPATIBLE_BRANDS: isomiso2avc1mp41
    MAJOR_BRAND     : isom
    MINOR_VERSION   : 512
    ENCODER         : Lavf61.7.100
  Duration: 00:24:06.79, start: -0.021000, bitrate: 987 kb/s
  Stream #0:0: Video: hevc (Main 10), yuv420p10le(tv, bt709, progressive), 1920x1080 [SAR 1:1 DAR 16:9], 23.98 fps, 23.98 tbr, 1k tbn (default)
      Metadata:
        HANDLER_NAME    : VideoHandler
        VENDOR_ID       : [0][0][0][0]
        ENCODER         : Lavc61.19.100 libx265
        BPS             : 790159
        DURATION        : 00:24:06.569708333
        NUMBER_OF_FRAMES: 34683
        NUMBER_OF_BYTES : 142877496
        _STATISTICS_WRITING_APP: mkvpropedit v94.0 ('Initiate') 64-bit
        _STATISTICS_WRITING_DATE_UTC: 2026-03-31 07:20:13
        _STATISTICS_TAGS: BPS DURATION NUMBER_OF_FRAMES NUMBER_OF_BYTES
  Stream #0:1: Audio: aac (LC), 48000 Hz, stereo, fltp (default)
      Metadata:
        HANDLER_NAME    : SoundHandler
        VENDOR_ID       : [0][0][0][0]
        ENCODER         : Lavc61.19.100 aac
        BPS             : 193194
        DURATION        : 00:24:06.784000000
        NUMBER_OF_FRAMES: 67819
        NUMBER_OF_BYTES : 34938755
        _STATISTICS_WRITING_APP: mkvpropedit v94.0 ('Initiate') 64-bit
        _STATISTICS_WRITING_DATE_UTC: 2026-03-31 07:20:13
        _STATISTICS_TAGS: BPS DURATION NUMBER_OF_FRAMES NUMBER_OF_BYTES
Input #1, mov,mp4,m4a,3gp,3g2,mj2, from 'F:\Convert\files\[DC] Make Heroine ga Oosugiru - 07_Telegram.mp4':
  Metadata:
    major_brand     : isom
    minor_version   : 512
    compatible_brands: isomiso2avc1mp41
    encoder         : Lavf60.16.100
  Duration: 00:24:06.74, start: 0.000000, bitrate: 3764 kb/s
  Stream #1:0[0x1](und): Video: h264 (High) (avc1 / 0x31637661), yuv420p(tv, bt709, progressive), 1920x1080 [SAR 1:1 DAR 16:9], 3616 kb/s, 23.98 fps, 23.98 tbr, 24k tbn (default)
      Metadata:
        handler_name    : VideoHandler
        vendor_id       : [0][0][0][0]
        encoder         : Lavc60.31.102 h264_qsv
  Stream #1:1[0x2](und): Audio: aac (HE-AACv2) (mp4a / 0x6134706D), 48000 Hz, stereo, fltp, 144 kb/s (default)
      Metadata:
        handler_name    : SoundHandler
        vendor_id       : [0][0][0][0]
Stream mapping:
  Stream #0:0 (hevc) -> settb:default
  Stream #1:0 (h264) -> settb:default
  psnr:default -> Stream #0:0 (wrapped_avframe)
  Stream #0:1 -> #0:1 (aac (native) -> pcm_s16le (native))
Output #0, null, to 'pipe:':
  Metadata:
    COMPATIBLE_BRANDS: isomiso2avc1mp41
    MAJOR_BRAND     : isom
    MINOR_VERSION   : 512
    encoder         : Lavf61.7.100
  Stream #0:0: Video: wrapped_avframe, yuv420p10le(tv, bt709, progressive), 1920x1080 [SAR 1:1 DAR 16:9], q=2-31, 200 kb/s, 23.98 fps, 23.98 tbn
      Metadata:
        encoder         : Lavc61.19.100 wrapped_avframe
  Stream #0:1: Audio: pcm_s16le, 48000 Hz, stereo, s16, 1536 kb/s (default)
      Metadata:
        HANDLER_NAME    : SoundHandler
        VENDOR_ID       : [0][0][0][0]
        _STATISTICS_TAGS: BPS DURATION NUMBER_OF_FRAMES NUMBER_OF_BYTES
        BPS             : 193194
        DURATION        : 00:24:06.784000000
        NUMBER_OF_FRAMES: 67819
        NUMBER_OF_BYTES : 34938755
        _STATISTICS_WRITING_APP: mkvpropedit v94.0 ('Initiate') 64-bit
        _STATISTICS_WRITING_DATE_UTC: 2026-03-31 07:20:13
        encoder         : Lavc61.19.100 pcm_s16le
frame=  127 fps=0.0 q=-0.0 size=N/A time=00:00:05.29 bitrate=N/A speed=10.2x    frame=  321 fps=311 q=-0.0 size=N/A time=00:00:13.38 bitrate=N/A speed=  13x    frame=  516 fps=335 q=-0.0 size=N/A time=00:00:21.52 bitrate=N/A speed=  14x    frame=  714 fps=345 q=-0.0 size=N/A time=00:00:29.77 bitrate=N/A speed=14.4x    frame=  891 fps=345 q=-0.0 size=N/A time=00:00:37.16 bitrate=N/A speed=14.4x    frame= 1032 fps=334 q=-0.0 size=N/A time=00:00:43.04 bitrate=N/A speed=13.9x    frame= 1194 fps=331 q=-0.0 size=N/A time=00:00:49.79 bitrate=N/A speed=13.8x    frame= 1353 fps=327 q=-0.0 size=N/A time=00:00:56.43 bitrate=N/A speed=13.7x    frame= 1504 fps=324 q=-0.0 size=N/A time=00:01:02.72 bitrate=N/A speed=13.5x    frame= 1645 fps=319 q=-0.0 size=N/A time=00:01:08.61 bitrate=N/A speed=13.3x    frame= 1806 fps=319 q=-0.0 size=N/A time=00:01:15.32 bitrate=N/A speed=13.3x    frame= 1968 fps=318 q=-0.0 size=N/A time=00:01:22.08 bitrate=N/A speed=13.2x    frame= 2091 fps=311 q=-0.0 size=N/A time=00:01:27.21 bitrate=N/A speed=  13x    frame= 2232 fps=308 q=-0.0 size=N/A time=00:01:33.09 bitrate=N/A speed=12.9x    frame= 2381 fps=307 q=-0.0 size=N/A time=00:01:39.30 bitrate=N/A speed=12.8x    frame= 2516 fps=304 q=-0.0 size=N/A time=00:01:44.93 bitrate=N/A speed=12.7x    frame= 2671 fps=304 q=-0.0 size=N/A time=00:01:51.40 bitrate=N/A speed=12.7x    frame= 2849 fps=306 q=-0.0 size=N/A time=00:01:58.82 bitrate=N/A speed=12.8x    frame= 3023 fps=308 q=-0.0 size=N/A time=00:02:06.08 bitrate=N/A speed=12.9x    frame= 3224 fps=312 q=-0.0 size=N/A time=00:02:14.46 bitrate=N/A speed=  13x    frame= 3421 fps=315 q=-0.0 size=N/A time=00:02:22.68 bitrate=N/A speed=13.2x    frame= 3611 fps=318 q=-0.0 size=N/A time=00:02:30.60 bitrate=N/A speed=13.3x    frame= 3806 fps=321 q=-0.0 size=N/A time=00:02:38.74 bitrate=N/A speed=13.4x    frame= 4000 fps=323 q=-0.0 size=N/A time=00:02:46.83 bitrate=N/A speed=13.5x    frame= 4198 fps=325 q=-0.0 size=N/A time=00:02:55.09 bitrate=N/A speed=13.6x    frame= 4390 fps=327 q=-0.0 size=N/A time=00:03:03.09 bitrate=N/A speed=13.6x    frame= 4585 fps=329 q=-0.0 size=N/A time=00:03:11.23 bitrate=N/A speed=13.7x    frame= 4791 fps=331 q=-0.0 size=N/A time=00:03:19.82 bitrate=N/A speed=13.8x    frame= 4982 fps=333 q=-0.0 size=N/A time=00:03:27.79 bitrate=N/A speed=13.9x    frame= 5173 fps=334 q=-0.0 size=N/A time=00:03:35.75 bitrate=N/A speed=13.9x    frame= 5370 fps=336 q=-0.0 size=N/A time=00:03:43.97 bitrate=N/A speed=  14x    frame= 5565 fps=337 q=-0.0 size=N/A time=00:03:52.10 bitrate=N/A speed=  14x    frame= 5760 fps=338 q=-0.0 size=N/A time=00:04:00.24 bitrate=N/A speed=14.1x    frame= 5955 fps=339 q=-0.0 size=N/A time=00:04:08.37 bitrate=N/A speed=14.2x    frame= 6151 fps=341 q=-0.0 size=N/A time=00:04:16.54 bitrate=N/A speed=14.2x    frame= 6355 fps=342 q=-0.0 size=N/A time=00:04:25.05 bitrate=N/A speed=14.3x    frame= 6547 fps=343 q=-0.0 size=N/A time=00:04:33.06 bitrate=N/A speed=14.3x    frame= 6741 fps=344 q=-0.0 size=N/A time=00:04:41.15 bitrate=N/A speed=14.3x    frame= 6935 fps=345 q=-0.0 size=N/A time=00:04:49.24 bitrate=N/A speed=14.4x    frame= 7128 fps=345 q=-0.0 size=N/A time=00:04:57.29 bitrate=N/A speed=14.4x    frame= 7319 fps=346 q=-0.0 size=N/A time=00:05:05.26 bitrate=N/A speed=14.4x    frame= 7507 fps=346 q=-0.0 size=N/A time=00:05:13.10 bitrate=N/A speed=14.4x    frame= 7690 fps=347 q=-0.0 size=N/A time=00:05:20.73 bitrate=N/A speed=14.5x    frame= 7884 fps=347 q=-0.0 size=N/A time=00:05:28.82 bitrate=N/A speed=14.5x    frame= 8074 fps=348 q=-0.0 size=N/A time=00:05:36.75 bitrate=N/A speed=14.5x    frame= 8267 fps=348 q=-0.0 size=N/A time=00:05:44.80 bitrate=N/A speed=14.5x    frame= 8457 fps=349 q=-0.0 size=N/A time=00:05:52.72 bitrate=N/A speed=14.5x    frame= 8647 fps=349 q=-0.0 size=N/A time=00:06:00.65 bitrate=N/A speed=14.6x    frame= 8835 fps=349 q=-0.0 size=N/A time=00:06:08.49 bitrate=N/A speed=14.6x    frame= 9029 fps=350 q=-0.0 size=N/A time=00:06:16.58 bitrate=N/A speed=14.6x    frame= 9219 fps=350 q=-0.0 size=N/A time=00:06:24.50 bitrate=N/A speed=14.6x    frame= 9416 fps=351 q=-0.0 size=N/A time=00:06:32.72 bitrate=N/A speed=14.6x    frame= 9614 fps=351 q=-0.0 size=N/A time=00:06:40.98 bitrate=N/A speed=14.7x    frame= 9799 fps=352 q=-0.0 size=N/A time=00:06:48.69 bitrate=N/A speed=14.7x    frame= 9995 fps=352 q=-0.0 size=N/A time=00:06:56.87 bitrate=N/A speed=14.7x    frame=10173 fps=352 q=-0.0 size=N/A time=00:07:04.29 bitrate=N/A speed=14.7x    frame=10357 fps=352 q=-0.0 size=N/A time=00:07:11.97 bitrate=N/A speed=14.7x    frame=10539 fps=352 q=-0.0 size=N/A time=00:07:19.56 bitrate=N/A speed=14.7x    frame=10727 fps=352 q=-0.0 size=N/A time=00:07:27.40 bitrate=N/A speed=14.7x    frame=10913 fps=352 q=-0.0 size=N/A time=00:07:35.16 bitrate=N/A speed=14.7x    frame=11112 fps=353 q=-0.0 size=N/A time=00:07:43.46 bitrate=N/A speed=14.7x    frame=11275 fps=353 q=-0.0 size=N/A time=00:07:50.26 bitrate=N/A speed=14.7x    frame=11459 fps=353 q=-0.0 size=N/A time=00:07:57.93 bitrate=N/A speed=14.7x    frame=11650 fps=353 q=-0.0 size=N/A time=00:08:05.90 bitrate=N/A speed=14.7x    frame=11838 fps=353 q=-0.0 size=N/A time=00:08:13.74 bitrate=N/A speed=14.7x    frame=12012 fps=353 q=-0.0 size=N/A time=00:08:21.00 bitrate=N/A speed=14.7x    frame=12198 fps=353 q=-0.0 size=N/A time=00:08:28.75 bitrate=N/A speed=14.7x    frame=12375 fps=353 q=-0.0 size=N/A time=00:08:36.14 bitrate=N/A speed=14.7x    frame=12563 fps=353 q=-0.0 size=N/A time=00:08:43.98 bitrate=N/A speed=14.7x    frame=12756 fps=353 q=-0.0 size=N/A time=00:08:52.03 bitrate=N/A speed=14.7x    frame=12948 fps=354 q=-0.0 size=N/A time=00:09:00.03 bitrate=N/A speed=14.7x    frame=13127 fps=353 q=-0.0 size=N/A time=00:09:07.50 bitrate=N/A speed=14.7x    frame=13309 fps=353 q=-0.0 size=N/A time=00:09:15.09 bitrate=N/A speed=14.7x    frame=13495 fps=353 q=-0.0 size=N/A time=00:09:22.85 bitrate=N/A speed=14.7x    frame=13666 fps=353 q=-0.0 size=N/A time=00:09:29.98 bitrate=N/A speed=14.7x    frame=13862 fps=354 q=-0.0 size=N/A time=00:09:38.16 bitrate=N/A speed=14.7x    frame=14046 fps=353 q=-0.0 size=N/A time=00:09:45.83 bitrate=N/A speed=14.7x    frame=14205 fps=353 q=-0.0 size=N/A time=00:09:52.46 bitrate=N/A speed=14.7x    frame=14396 fps=353 q=-0.0 size=N/A time=00:10:00.43 bitrate=N/A speed=14.7x    frame=14585 fps=353 q=-0.0 size=N/A time=00:10:08.31 bitrate=N/A speed=14.7x    frame=14780 fps=354 q=-0.0 size=N/A time=00:10:16.44 bitrate=N/A speed=14.7x    frame=14970 fps=354 q=-0.0 size=N/A time=00:10:24.37 bitrate=N/A speed=14.8x    frame=15135 fps=353 q=-0.0 size=N/A time=00:10:31.25 bitrate=N/A speed=14.7x    frame=15324 fps=354 q=-0.0 size=N/A time=00:10:39.13 bitrate=N/A speed=14.7x    frame=15513 fps=354 q=-0.0 size=N/A time=00:10:47.02 bitrate=N/A speed=14.8x    frame=15706 fps=354 q=-0.0 size=N/A time=00:10:55.07 bitrate=N/A speed=14.8x    frame=15905 fps=354 q=-0.0 size=N/A time=00:11:03.37 bitrate=N/A speed=14.8x    frame=16096 fps=354 q=-0.0 size=N/A time=00:11:11.33 bitrate=N/A speed=14.8x    frame=16292 fps=355 q=-0.0 size=N/A time=00:11:19.51 bitrate=N/A speed=14.8x    frame=16482 fps=355 q=-0.0 size=N/A time=00:11:27.43 bitrate=N/A speed=14.8x    frame=16674 fps=355 q=-0.0 size=N/A time=00:11:35.44 bitrate=N/A speed=14.8x    frame=16877 fps=356 q=-0.0 size=N/A time=00:11:43.91 bitrate=N/A speed=14.8x    frame=17073 fps=356 q=-0.0 size=N/A time=00:11:52.08 bitrate=N/A speed=14.8x    frame=17269 fps=356 q=-0.0 size=N/A time=00:12:00.26 bitrate=N/A speed=14.9x    frame=17464 fps=356 q=-0.0 size=N/A time=00:12:08.39 bitrate=N/A speed=14.9x    frame=17656 fps=356 q=-0.0 size=N/A time=00:12:16.40 bitrate=N/A speed=14.9x    frame=17844 fps=357 q=-0.0 size=N/A time=00:12:24.24 bitrate=N/A speed=14.9x    frame=18044 fps=357 q=-0.0 size=N/A time=00:12:32.58 bitrate=N/A speed=14.9x    frame=18235 fps=357 q=-0.0 size=N/A time=00:12:40.55 bitrate=N/A speed=14.9x    frame=18417 fps=357 q=-0.0 size=N/A time=00:12:48.14 bitrate=N/A speed=14.9x    frame=18605 fps=357 q=-0.0 size=N/A time=00:12:55.98 bitrate=N/A speed=14.9x    frame=18803 fps=357 q=-0.0 size=N/A time=00:13:04.24 bitrate=N/A speed=14.9x    frame=19006 fps=358 q=-0.0 size=N/A time=00:13:12.70 bitrate=N/A speed=14.9x    frame=19200 fps=358 q=-0.0 size=N/A time=00:13:20.80 bitrate=N/A speed=14.9x    frame=19391 fps=358 q=-0.0 size=N/A time=00:13:28.76 bitrate=N/A speed=14.9x    frame=19591 fps=358 q=-0.0 size=N/A time=00:13:37.10 bitrate=N/A speed=14.9x    frame=19787 fps=358 q=-0.0 size=N/A time=00:13:45.28 bitrate=N/A speed=14.9x    frame=19983 fps=359 q=-0.0 size=N/A time=00:13:53.45 bitrate=N/A speed=  15x    frame=20191 fps=359 q=-0.0 size=N/A time=00:14:02.13 bitrate=N/A speed=  15x    frame=20381 fps=359 q=-0.0 size=N/A time=00:14:10.05 bitrate=N/A speed=  15x    frame=20568 fps=359 q=-0.0 size=N/A time=00:14:17.85 bitrate=N/A speed=  15x    frame=20744 fps=359 q=-0.0 size=N/A time=00:14:25.19 bitrate=N/A speed=  15x    frame=20945 fps=359 q=-0.0 size=N/A time=00:14:33.58 bitrate=N/A speed=  15x    frame=21149 fps=360 q=-0.0 size=N/A time=00:14:42.08 bitrate=N/A speed=  15x    frame=21322 fps=359 q=-0.0 size=N/A time=00:14:49.30 bitrate=N/A speed=  15x    frame=21502 fps=359 q=-0.0 size=N/A time=00:14:56.81 bitrate=N/A speed=  15x    frame=21690 fps=359 q=-0.0 size=N/A time=00:15:04.65 bitrate=N/A speed=  15x    frame=21874 fps=359 q=-0.0 size=N/A time=00:15:12.32 bitrate=N/A speed=  15x    frame=22076 fps=360 q=-0.0 size=N/A time=00:15:20.75 bitrate=N/A speed=  15x    frame=22279 fps=360 q=-0.0 size=N/A time=00:15:29.21 bitrate=N/A speed=  15x    frame=22475 fps=360 q=-0.0 size=N/A time=00:15:37.39 bitrate=N/A speed=  15x    frame=22674 fps=360 q=-0.0 size=N/A time=00:15:45.69 bitrate=N/A speed=  15x    frame=22861 fps=360 q=-0.0 size=N/A time=00:15:53.49 bitrate=N/A speed=  15x    frame=23060 fps=360 q=-0.0 size=N/A time=00:16:01.79 bitrate=N/A speed=  15x    frame=23257 fps=361 q=-0.0 size=N/A time=00:16:10.01 bitrate=N/A speed=  15x    frame=23455 fps=361 q=-0.0 size=N/A time=00:16:18.26 bitrate=N/A speed=15.1x    frame=23653 fps=361 q=-0.0 size=N/A time=00:16:26.52 bitrate=N/A speed=15.1x    frame=23854 fps=361 q=-0.0 size=N/A time=00:16:34.91 bitrate=N/A speed=15.1x    frame=24053 fps=361 q=-0.0 size=N/A time=00:16:43.21 bitrate=N/A speed=15.1x    frame=24243 fps=362 q=-0.0 size=N/A time=00:16:51.13 bitrate=N/A speed=15.1x    frame=24441 fps=362 q=-0.0 size=N/A time=00:16:59.39 bitrate=N/A speed=15.1x    frame=24637 fps=362 q=-0.0 size=N/A time=00:17:07.56 bitrate=N/A speed=15.1x    frame=24831 fps=362 q=-0.0 size=N/A time=00:17:15.65 bitrate=N/A speed=15.1x    frame=25029 fps=362 q=-0.0 size=N/A time=00:17:23.91 bitrate=N/A speed=15.1x    frame=25227 fps=362 q=-0.0 size=N/A time=00:17:32.17 bitrate=N/A speed=15.1x    frame=25420 fps=362 q=-0.0 size=N/A time=00:17:40.22 bitrate=N/A speed=15.1x    frame=25617 fps=362 q=-0.0 size=N/A time=00:17:48.44 bitrate=N/A speed=15.1x    frame=25816 fps=363 q=-0.0 size=N/A time=00:17:56.74 bitrate=N/A speed=15.1x    frame=26011 fps=363 q=-0.0 size=N/A time=00:18:04.87 bitrate=N/A speed=15.1x    frame=26208 fps=363 q=-0.0 size=N/A time=00:18:13.09 bitrate=N/A speed=15.1x    frame=26404 fps=363 q=-0.0 size=N/A time=00:18:21.26 bitrate=N/A speed=15.1x    frame=26604 fps=363 q=-0.0 size=N/A time=00:18:29.60 bitrate=N/A speed=15.1x    frame=26799 fps=363 q=-0.0 size=N/A time=00:18:37.74 bitrate=N/A speed=15.2x    frame=26983 fps=363 q=-0.0 size=N/A time=00:18:45.41 bitrate=N/A speed=15.2x    frame=27157 fps=363 q=-0.0 size=N/A time=00:18:52.67 bitrate=N/A speed=15.1x    frame=27351 fps=363 q=-0.0 size=N/A time=00:19:00.76 bitrate=N/A speed=15.1x    frame=27537 fps=363 q=-0.0 size=N/A time=00:19:08.52 bitrate=N/A speed=15.1x    frame=27735 fps=363 q=-0.0 size=N/A time=00:19:16.78 bitrate=N/A speed=15.2x    frame=27924 fps=363 q=-0.0 size=N/A time=00:19:24.66 bitrate=N/A speed=15.2x    frame=28124 fps=363 q=-0.0 size=N/A time=00:19:33.00 bitrate=N/A speed=15.2x    frame=28321 fps=364 q=-0.0 size=N/A time=00:19:41.22 bitrate=N/A speed=15.2x    frame=28513 fps=364 q=-0.0 size=N/A time=00:19:49.22 bitrate=N/A speed=15.2x    frame=28706 fps=364 q=-0.0 size=N/A time=00:19:57.27 bitrate=N/A speed=15.2x    frame=28884 fps=364 q=-0.0 size=N/A time=00:20:04.70 bitrate=N/A speed=15.2x    frame=29050 fps=363 q=-0.0 size=N/A time=00:20:11.62 bitrate=N/A speed=15.2x    frame=29230 fps=363 q=-0.0 size=N/A time=00:20:19.13 bitrate=N/A speed=15.2x    frame=29420 fps=363 q=-0.0 size=N/A time=00:20:27.05 bitrate=N/A speed=15.2x    frame=29602 fps=363 q=-0.0 size=N/A time=00:20:34.65 bitrate=N/A speed=15.1x    frame=29775 fps=363 q=-0.0 size=N/A time=00:20:41.86 bitrate=N/A speed=15.1x    frame=29952 fps=363 q=-0.0 size=N/A time=00:20:49.24 bitrate=N/A speed=15.1x    frame=30121 fps=363 q=-0.0 size=N/A time=00:20:56.29 bitrate=N/A speed=15.1x    frame=30319 fps=363 q=-0.0 size=N/A time=00:21:04.55 bitrate=N/A speed=15.1x    frame=30510 fps=363 q=-0.0 size=N/A time=00:21:12.52 bitrate=N/A speed=15.1x    frame=30709 fps=363 q=-0.0 size=N/A time=00:21:20.82 bitrate=N/A speed=15.1x    frame=30905 fps=363 q=-0.0 size=N/A time=00:21:28.99 bitrate=N/A speed=15.1x    frame=31097 fps=363 q=-0.0 size=N/A time=00:21:37.00 bitrate=N/A speed=15.1x    frame=31296 fps=363 q=-0.0 size=N/A time=00:21:45.30 bitrate=N/A speed=15.1x    frame=31484 fps=363 q=-0.0 size=N/A time=00:21:53.14 bitrate=N/A speed=15.2x    frame=31675 fps=363 q=-0.0 size=N/A time=00:22:01.11 bitrate=N/A speed=15.2x    frame=31856 fps=363 q=-0.0 size=N/A time=00:22:08.66 bitrate=N/A speed=15.2x    frame=32048 fps=363 q=-0.0 size=N/A time=00:22:16.66 bitrate=N/A speed=15.2x    frame=32240 fps=363 q=-0.0 size=N/A time=00:22:24.67 bitrate=N/A speed=15.2x    frame=32423 fps=363 q=-0.0 size=N/A time=00:22:32.30 bitrate=N/A speed=15.2x    frame=32614 fps=363 q=-0.0 size=N/A time=00:22:40.27 bitrate=N/A speed=15.2x    frame=32762 fps=363 q=-0.0 size=N/A time=00:22:46.44 bitrate=N/A speed=15.1x    frame=32928 fps=363 q=-0.0 size=N/A time=00:22:53.37 bitrate=N/A speed=15.1x    frame=33108 fps=363 q=-0.0 size=N/A time=00:23:00.87 bitrate=N/A speed=15.1x    frame=33282 fps=362 q=-0.0 size=N/A time=00:23:08.13 bitrate=N/A speed=15.1x    frame=33446 fps=362 q=-0.0 size=N/A time=00:23:14.97 bitrate=N/A speed=15.1x    frame=33590 fps=362 q=-0.0 size=N/A time=00:23:20.98 bitrate=N/A speed=15.1x    frame=33741 fps=361 q=-0.0 size=N/A time=00:23:27.28 bitrate=N/A speed=15.1x    frame=33863 fps=361 q=-0.0 size=N/A time=00:23:32.36 bitrate=N/A speed=  15x    frame=34012 fps=360 q=-0.0 size=N/A time=00:23:38.58 bitrate=N/A speed=  15x    frame=34170 fps=360 q=-0.0 size=N/A time=00:23:45.17 bitrate=N/A speed=  15x    frame=34314 fps=360 q=-0.0 size=N/A time=00:23:51.17 bitrate=N/A speed=  15x    frame=34444 fps=359 q=-0.0 size=N/A time=00:23:56.60 bitrate=N/A speed=  15x    frame=34623 fps=359 q=-0.0 size=N/A time=00:24:04.06 bitrate=N/A speed=  15x    [Parsed_psnr_16 @ 000002371e38da80] PSNR y:49.000188 u:50.332988 v:50.387710 average:49.407982 min:37.938817 max:inf
[out#0/null @ 0000023711a4dec0] video:14903KiB audio:271276KiB subtitle:0KiB other streams:0KiB global headers:0KiB muxing overhead: unknown
frame=34683 fps=359 q=-0.0 Lsize=N/A time=00:24:06.57 bitrate=N/A speed=  15x    
